<svg xmlns="http://www.w3.org/2000/svg" viewBox="0 0 28 28" width="28" height="28" fill="currentColor"><path d="M14.5 16a2.5 2.5 0 1 1 0-5 2.5 2.5 0 0 1 0 5zm0-1a1.5 1.5 0 1 0 0-3 1.5 1.5 0 0 0 0 3zm0 7a2.5 2.5 0 1 1 0-5 2.5 2.5 0 0 1 0 5zm0-1a1.5 1.5 0 1 0 0-3 1.5 1.5 0 0 0 0 3zm3.293-15.5l4.707 4.707.707-.707L18.5 4.793z"></path><path d="M18.5 10.207L23.207 5.5l-.707-.707L17.793 9.5zm-.707 1.293l4.707 4.707.707-.707-4.707-4.707z"></path><path d="M18.5 16.207l4.707-4.707-.707-.707-4.707 4.707zM5.793 17.5l4.707 4.707.707-.707L6.5 16.793z"></path><path d="M6.5 22.207l4.707-4.707-.707-.707L5.793 21.5zM5.793 5.5l4.707 4.707.707-.707L6.5 4.793z"></path><path d="M6.5 10.207L11.207 5.5l-.707-.707L5.793 9.5zM5.793 11.5l4.707 4.707.707-.707L6.5 10.793z"></path><path d="M6.5 16.207l4.707-4.707-.707-.707L5.793 15.5z"></path></svg>