<svg viewBox="0 0 28 28" class="css-6t6gis-IndicatorIcon eoj6wn049" height="28" width="28">
    <g transform="matrix(1,0,0,1,0.5,0.5)">
        <path transform="matrix(1.4,0,0,1.2,-4,-1.5)" fill="currentColor"
            d="M 21.5 12.1 h -5.5 c -0.3 0 -0.5 0.2 -0.6 0.4 l -1.4 4.1 L 11.8 5.6 c -0.1 -0.3 -0.3 -0.5 -0.6 -0.5 C 10.9 5.1 10.6 5.3 10.5 5.5 L 8.4 12.1 H 4 c -0.4 0 -0.7 0.3 -0.7 0.7 c 0 0.4 0.3 0.7 0.7 0.7 h 4.8 c 0.3 0 0.5 -0.2 0.6 -0.4 l 1.5 -4.6 l 2.2 10.9 c 0.1 0.3 0.3 0.5 0.6 0.5 c 0 0 0 0 0 0 c 0.3 0 0.5 -0.2 0.6 -0.4 L 16.5 13.4 h 5 c 0.4 0 0.7 -0.3 0.7 -0.7 C 22.2 12.4 21.9 12.1 21.5 12.1 z">
        </path>
    </g>
</svg>