<svg xmlns="http://www.w3.org/2000/svg" width="28" height="28" fill="none" viewBox="0 0 28 28">
    <path fill="currentColor" fill-rule="evenodd" clip-rule="evenodd"
        d="M 14.2 3 C 14.1 2.9 13.9 2.9 13.8 3 l -9.2 7.5 C 4.5 10.6 4.4 10.7 4.4 10.9 C 4.4 11 4.5 11.1 4.6 11.2 l 9.2 7.5 C 13.9 18.8 14.1 18.8 14.2 18.7 l 9.2 -7.5 C 23.5 11.1 23.6 11 23.6 10.9 C 23.6 10.7 23.5 10.6 23.4 10.5 l -9.2 -7.5 z M 14 17.9 L 5.4 10.9 L 14 3.8 L 22.6 10.9 L 14 17.9 z m 0 3.3 l -9 -7.4 l -0.5 0.7 l 9.2 7.5 C 13.9 22.2 14.1 22.2 14.2 22.1 l 9.2 -7.5 l -0.5 -0.7 L 14 21.2 z m 0 3.3 l -9 -7.4 l -0.5 0.7 l 9.2 7.5 C 13.9 25.5 14.1 25.5 14.2 25.4 l 9.2 -7.5 l -0.5 -0.7 L 14 24.6 z">
    </path>
</svg>