<svg xmlns="http://www.w3.org/2000/svg" version="1.1" x="0px" y="0px" viewBox="0 0 100 125" enable-background="0 0 100 100" height="30" width="30" class="css-p068ek-Avatar en237n617"><path d="M26.1,89.9L26.1,89.9c0-0.1-0.6-7.6-10.1-7.6c-9.6,0-10.1,7.6-10.1,7.6v2.2c0,0.6,0.5,1.1,1.1,1.1h18  c0.6,0,1.1-0.5,1.1-1.1L26.1,89.9z"></path><path d="M15.8,80.5c2.8,0,5-2.5,5-5.5s-2.3-5.5-5-5.5c-2.8,0-5,2.5-5,5.5S13,80.5,15.8,80.5z"></path><path d="M93,89.9L93,89.9c0-0.1-0.6-7.6-10.1-7.6c-9.6,0-10.1,7.6-10.1,7.6v2.2c0,0.6,0.5,1.1,1.1,1.1h18  c0.6,0,1.1-0.5,1.1-1.1L93,89.9z"></path><path d="M82.6,80.5c2.8,0,5-2.5,5-5.5s-2.3-5.5-5-5.5c-2.8,0-5,2.5-5,5.5S79.8,80.5,82.6,80.5z"></path><path d="M59.1,21.3L59.1,21.3c0-0.1-0.6-7.6-10.1-7.6c-9.6,0-10.1,7.6-10.1,7.6v2.2c0,0.6,0.5,1.1,1.1,1.1h18  c0.6,0,1.1-0.5,1.1-1.1L59.1,21.3z"></path><path d="M48.7,11.9c2.8,0,5-2.5,5-5.5s-2.3-5.5-5-5.5c-2.8,0-5,2.5-5,5.5S46,11.9,48.7,11.9z"></path><path d="M33.6,14.8c-0.2-0.5-0.7-0.8-1.2-0.8c-0.2,0-0.4,0-0.5,0.1C-5.2,30.4,6.4,68.1,6.5,68.4  c0.2,0.7,1,1.1,1.6,0.8c0.3-0.1,0.6-0.3,0.8-0.6c0.2-0.3,0.2-0.7,0.1-1c0-0.1-2.9-9-1.3-19.8c2-14.4,10.5-24.9,25.2-31.3  C33.6,16.3,33.9,15.5,33.6,14.8z"></path><path d="M67.5,14.2C67.3,14.1,67.2,14,67,14c-0.2,0-0.3,0-0.5,0.1c-0.3,0.1-0.6,0.4-0.7,0.7s-0.1,0.7,0,1  c0.1,0.3,0.4,0.6,0.7,0.7c34.9,15.3,24.4,49.6,23.9,51.1c-0.2,0.7,0.2,1.4,0.8,1.6c0.7,0.2,1.4-0.2,1.6-0.8  C93,68.1,104.7,30.4,67.5,14.2z"></path><path d="M66.6,93c-18.2,7.7-33.1,0.1-33.3,0c-0.2-0.1-0.4-0.1-0.6-0.1c-0.1,0-0.3,0-0.4,0.1c-0.3,0.1-0.6,0.3-0.8,0.6  c-0.2,0.3-0.2,0.7-0.1,1s0.3,0.6,0.6,0.8c0.3,0.2,7.3,3.7,17.6,3.7c6.1,0,12.1-1.2,17.9-3.7c0.7-0.3,1-1,0.7-1.7  C68.1,93,67.3,92.7,66.6,93z"></path><path d="M57.6,36.9H55v2.7h-3.4v10.1H55v6.5h2.6v-6.5H61V39.7h-3.4V36.9z M59.4,41.2v6.9H56h-2.8v-6.9H59.4z"></path><path d="M69.8,45.1v-3.5h-2.4v3.5h-3.6v24h3.6v4.4h2.4v-4.4h3.3v-24H69.8z M71.6,67.6h-3.3h-2.9V46.6h6.2V67.6z"></path><path d="M33.2,55.2h-2.6v4.6h-3.4v12.5h3.4v2.4h2.6v-2.4h3.4V59.8h-3.4V55.2z M35,61.3v9.4h-3.4h-2.8v-9.4H35z"></path><path d="M45.4,33.4h-2.6v8h-3.4v26.6h3.4v4.1h2.6v-4.1h3.4V41.5h-3.4V33.4z M47.2,43v23.4h-3.4H41V43H47.2z"></path><text xmlns="http://www.w3.org/2000/svg" x="25" y="115" fill="currentColor" font-size="16px" font-weight="bold" font-family="'Helvetica Neue', Helvetica, Arial-Unicode, Arial, Sans-serif">Paper</text></svg>