<svg xmlns="http://www.w3.org/2000/svg" version="1.1" x="0px" y="0px" viewBox="0 0 70 87.5" enable-background="new 0 0 70 70" height="40" width="40" class="css-p068ek-Avatar en237n617"><g xmlns="http://www.w3.org/2000/svg"><g><g><path fill="currentColor" d="M42.7202148,21.7109375h-15.75c-0.5527344,0-1-0.4472656-1-1v-5.4824219     c0-1.5390625,1.2519531-2.7910156,2.7900391-2.7910156h12.1689453c1.5390625,0,2.7910156,1.2519531,2.7910156,2.7910156     v5.4824219C43.7202148,21.2636719,43.2729492,21.7109375,42.7202148,21.7109375z M27.9702148,19.7109375h13.75v-4.4824219     c0-0.4365234-0.3544922-0.7910156-0.7910156-0.7910156H28.7602539c-0.4355469,0-0.7900391,0.3544922-0.7900391,0.7910156     V19.7109375z"></path></g></g><g><g><path fill="currentColor" d="M34.8452148,45.4697266c-5.5410156,0-10.0498047-4.5107422-10.0498047-10.0556641     c0-5.5410156,4.5087891-10.0498047,10.0498047-10.0498047S44.894043,29.8730469,44.894043,35.4140625     C44.894043,40.9589844,40.3862305,45.4697266,34.8452148,45.4697266z M34.8452148,27.3642578     c-4.4384766,0-8.0498047,3.6113281-8.0498047,8.0498047c0,4.4423828,3.6113281,8.0556641,8.0498047,8.0556641     s8.0488281-3.6132813,8.0488281-8.0556641C42.894043,30.9755859,39.2836914,27.3642578,34.8452148,27.3642578z"></path></g></g><g><g><path fill="currentColor" d="M43.8803711,36.6816406c-0.2519531,0-0.4951172-0.0947266-0.6816406-0.2685547     c-0.2109375-0.1962891-0.3271484-0.4755859-0.3173828-0.7636719l0.0078125-0.1503906     c0.0048828-4.5234375-3.6054688-8.1347656-8.0439453-8.1347656s-8.0498047,3.6113281-8.0498047,8.0498047     c0.0009766,0.0117188,0.0117188,0.1943359,0.0117188,0.2060547c0.0107422,0.2900391-0.1054688,0.5703125-0.3173828,0.7675781     c-0.2119141,0.1982422-0.5009766,0.2949219-0.7880859,0.2626953c-5.0195313-0.5371094-10.0634766-1.5195313-14.9902344-2.921875     c-0.4296875-0.1220703-0.7265625-0.5146484-0.7265625-0.9619141v-8.5527344c0-2.4833984,2.0195313-4.5029297,4.5029297-4.5029297     H55.512207c2.4833984,0,4.5029297,2.0195313,4.5029297,4.5029297v8.5527344c0,0.4472656-0.2978516,0.8408203-0.7285156,0.9619141     c-5.0371094,1.4228516-10.1855469,2.4150391-15.3027344,2.9472656     C43.949707,36.6796875,43.9145508,36.6816406,43.8803711,36.6816406z M34.8452148,25.3642578     c5.2558594,0,9.5820313,4.0566406,10.0136719,9.203125c4.4003906-0.5146484,8.8173828-1.3740234,13.15625-2.5605469v-7.7929688     c0-1.3798828-1.1230469-2.5029297-2.5029297-2.5029297H14.487793c-1.3798828,0-2.5029297,1.1230469-2.5029297,2.5029297     v7.7939453c4.2324219,1.1660156,8.5458984,2.015625,12.8486328,2.53125     C25.277832,29.4052734,29.5981445,25.3642578,34.8452148,25.3642578z M59.0151367,32.7666016h0.0097656H59.0151367z"></path></g></g><g><g><path fill="currentColor" d="M55.7446289,57.5625H14.284668c-2.3544922,0-4.2695313-1.9150391-4.2695313-4.2695313V32.7753906     c0-0.3134766,0.1474609-0.6083984,0.3974609-0.7978516s0.5761719-0.2480469,0.8759766-0.1640625     c4.4589844,1.265625,9.0107422,2.1816406,13.5449219,2.7255859c0.4443359-5.1337891,4.7646484-9.1748047,10.0117188-9.1748047     c5.2558594,0,9.5820313,4.0566406,10.0136719,9.203125c4.6464844-0.5429688,9.3115234-1.4716797,13.8847656-2.7626953     c0.2998047-0.0859375,0.625-0.0253906,0.875,0.1640625s0.3964844,0.484375,0.3964844,0.7978516v20.5263672     C60.0151367,55.6474609,58.0991211,57.5625,55.7446289,57.5625z M12.0151367,34.0888672v19.2041016     c0,1.2509766,1.0185547,2.2695313,2.2695313,2.2695313h41.4599609c1.2519531,0,2.2705078-1.0185547,2.2705078-2.2695313     V34.078125c-4.6308594,1.2373047-9.34375,2.1103516-14.03125,2.5976563     c-0.2861328,0.0322266-0.5732422-0.0654297-0.7851563-0.2626953c-0.2109375-0.1962891-0.3271484-0.4755859-0.3173828-0.7636719     l0.0126953-0.2353516c0-4.4384766-3.6103516-8.0498047-8.0488281-8.0498047s-8.0498047,3.6113281-8.0498047,8.0498047     c0.0009766,0.0117188,0.0117188,0.1943359,0.0117188,0.2060547c0.0107422,0.2900391-0.1054688,0.5703125-0.3173828,0.7675781     c-0.2119141,0.1982422-0.5009766,0.2949219-0.7880859,0.2626953     C21.1293945,36.1611328,16.5307617,35.3007813,12.0151367,34.0888672z"></path></g></g><g><g><path fill="currentColor" d="M34.8452148,41.2841797c-1.8935547,0-3.4335938-1.5400391-3.4335938-3.4335938c0-0.5527344,0.4472656-1,1-1     s1,0.4472656,1,1c0,0.7900391,0.6435547,1.4335938,1.4335938,1.4335938s1.4326172-0.6435547,1.4326172-1.4335938     s-0.6425781-1.4335938-1.4326172-1.4335938c-1.8935547,0-3.4335938-1.5400391-3.4335938-3.4335938     s1.5400391-3.4335938,3.4335938-3.4335938c1.8925781,0,3.4326172,1.5400391,3.4326172,3.4335938c0,0.5527344-0.4472656,1-1,1     s-1-0.4472656-1-1c0-0.7900391-0.6425781-1.4335938-1.4326172-1.4335938s-1.4335938,0.6435547-1.4335938,1.4335938     s0.6435547,1.4335938,1.4335938,1.4335938c1.8925781,0,3.4326172,1.5400391,3.4326172,3.4335938     S36.737793,41.2841797,34.8452148,41.2841797z"></path></g></g><g><g><path fill="currentColor" d="M34.8452148,42.5585938c-0.5527344,0-1-0.4472656-1-1v-1.2744141c0-0.5527344,0.4472656-1,1-1s1,0.4472656,1,1v1.2744141     C35.8452148,42.1113281,35.3979492,42.5585938,34.8452148,42.5585938z"></path></g></g><g><g><path fill="currentColor" d="M34.8452148,31.5498047c-0.5527344,0-1-0.4472656-1-1v-1.2734375c0-0.5527344,0.4472656-1,1-1s1,0.4472656,1,1v1.2734375     C35.8452148,31.1025391,35.3979492,31.5498047,34.8452148,31.5498047z"></path></g></g></g><text xmlns="http://www.w3.org/2000/svg" x="5" y="75" fill="currentColor" font-size="16px" font-weight="bold" font-family="'Helvetica Neue', Helvetica, Arial-Unicode, Arial, Sans-serif">Portfolio</text></svg>