<svg xmlns="http://www.w3.org/2000/svg" width="28" height="28">
    <path fill="currentcolor"
        d="M 20.2 4.2 C 22.3 4.2 24 5.9 24 8 v 11.9 C 24 22.1 22.3 23.8 20.2 23.8 h -12.5 C 5.6 23.8 4 22.1 4 19.9 v -11.9 C 4 5.9 5.6 4.2 7.7 4.2 m 0 0.8 C 6.1 5 4.7 6.4 4.7 8 v 11.9 C 4.7 21.5 6.1 22.9 7.7 22.9 h 12.5 C 21.8 22.9 23.2 21.5 23.2 19.9 v -11.9 C 23.2 6.4 21.8 5 20.2 5 M 8.1 9.3 v -0.8 h 11.7 v 0.8 z m 0 3.4 v -0.8 h 11.7 v 0.8 z m 0 3.4 v -0.8 h 11.7 v 0.8 z m 0 3.4 v -0.8 h 11.7 v 0.8 z">
    </path>
</svg>