<svg xmlns="http://www.w3.org/2000/svg" width="28" height="28" viewBox="0 0 28 28" fill="none" stroke="currentColor"
    stroke-width="1" stroke-linecap="round" stroke-linejoin="round" class="feather feather-tool">
    <path
        d="M 16.1 8.9 C 15.7 9.3 15.7 9.9 16.1 10.3 l 1.6 1.6 C 18.1 12.3 18.7 12.3 19.1 11.9 l 3.8 -3.8 C 23.9 10.3 23.4 13 21.6 14.7 C 19.9 16.5 17.2 17 15 16 l -6.9 6.9 C 7.2 23.7 5.9 23.7 5.1 22.9 C 4.2 22 4.2 20.7 5.1 19.9 l 6.9 -6.9 C 11 10.7 11.5 8.1 13.2 6.3 C 15 4.6 17.6 4.1 19.9 5.1 l -3.8 3.8 z">
    </path>
</svg>