<svg xmlns="http://www.w3.org/2000/svg" version="1.1" x="0px" y="0px" viewBox="0 0 80 100" enable-background="new 0 0 80 80" height="50" width="50" class="css-p068ek-Avatar en237n617"><g><rect x="19" y="26" fill="currentColor" width="24" height="2"></rect></g><g><rect x="19" y="36" fill="currentColor" width="23" height="2"></rect></g><g><rect x="19" y="46" fill="currentColor" width="39" height="2"></rect></g><g><rect x="19" y="56" fill="currentColor" width="39" height="2"></rect></g><g><path fill="currentColor" d="M57,42c-6.1,0-11-4.9-11-11s4.9-11,11-11s11,4.9,11,11S63.1,42,57,42z M57,22c-5,0-9,4-9,9s4,9,9,9    s9-4,9-9S62,22,57,22z"></path></g><g><polygon fill="currentColor" points="57,32.4 54.3,29.7 55.7,28.3 57,29.6 60.3,26.3 61.7,27.7   "></polygon></g><text x="0" y="90" fill="currentColor" font-size="18px" font-weight="bold" font-family="'Helvetica Neue', Helvetica, Arial-Unicode, Arial, Sans-serif">Watchlist</text></svg>